<svg fill="#A9A9A9" xmlns="http://www.w3.org/2000/svg" xmlns:xlink="http://www.w3.org/1999/xlink" version="1.1" x="0px" y="0px" viewBox="0 0 100 100" enable-background="new 0 0 100 100" xml:space="preserve"><polygon points="46.485,47.328 45.234,54.623 51.786,51.179 58.338,54.624 57.087,47.328 62.386,42.162 55.062,41.098   51.786,34.458 48.511,41.098 41.186,42.162 "></polygon><polygon points="98.352,51.75 89.554,50.471 85.619,42.499 81.684,50.471 72.886,51.75 79.251,57.956 77.748,66.719 85.619,62.581   93.489,66.72 91.986,57.956 "></polygon><polygon points="69.213,30.436 77.083,26.298 84.954,30.437 83.451,21.673 89.816,15.467 81.019,14.188 77.083,6.215 73.148,14.188   64.351,15.467 70.716,21.673 "></polygon><path d="M31.559,39.086c0-12.887,5.054-24.976,14.232-34.039l1.931-1.907l-2.707,0.198C20.697,5.119,1.648,25.628,1.648,50.028  c0,25.822,21.008,46.831,46.83,46.831c9.588,0,18.812-2.887,26.674-8.348l2.233-1.552l-2.706-0.265  C50.097,84.287,31.559,63.819,31.559,39.086z"></path></svg>
