<svg fill="#A9A9A9" xmlns="http://www.w3.org/2000/svg" data-name="Layer 1" viewBox="0 0 100 100" x="0px" y="0px"><title>weather</title><path d="M70,77.45A12.47,12.47,0,0,1,57.48,89.92H20.05a14.93,14.93,0,0,1-4.9-29.05c0-.3-.09-.58-.09-.89a14.92,14.92,0,0,1,28-7.19A10,10,0,0,1,58.54,65.08,12.43,12.43,0,0,1,70,77.45ZM94.6,58.87a29.88,29.88,0,0,1-21.38,11,17.2,17.2,0,0,0-8.34-8.2A15,15,0,0,0,44.32,46.13a19.41,19.41,0,0,0-2.61-2.22,29.13,29.13,0,0,1-.28-3.9A29.94,29.94,0,0,1,71.36,10.08a30.89,30.89,0,0,1,5.47.5,1.41,1.41,0,0,1,.44,2.6,23.45,23.45,0,0,0,16,43.43A1.4,1.4,0,0,1,94.6,58.87Z"></path></svg>
