<?xml version="1.0" encoding="UTF-8"?>
<svg width="700pt" height="700pt" version="1.1" viewBox="0 0 700 700" xmlns="http://www.w3.org/2000/svg" xmlns:xlink="http://www.w3.org/1999/xlink">
 <defs>
  <symbol id="w" overflow="visible">
   <path d="m3.1094-0.1875c-0.15625 0.085938-0.32422 0.14844-0.5 0.1875-0.17969 0.039062-0.35938 0.0625-0.54688 0.0625-0.5625 0-1.0117-0.15625-1.3438-0.46875-0.32422-0.3125-0.48438-0.73828-0.48438-1.2812 0-0.53906 0.16016-0.96875 0.48438-1.2812 0.33203-0.3125 0.78125-0.46875 1.3438-0.46875 0.1875 0 0.36719 0.023438 0.54688 0.0625 0.17578 0.042969 0.34375 0.10547 0.5 0.1875v0.6875c-0.16797-0.10156-0.32812-0.17969-0.48438-0.23438-0.15625-0.050781-0.32031-0.078125-0.48438-0.078125-0.3125 0-0.55859 0.10156-0.73438 0.29688-0.17969 0.19922-0.26562 0.47656-0.26562 0.82812 0 0.34375 0.085937 0.62109 0.26562 0.82812 0.17578 0.19922 0.42188 0.29688 0.73438 0.29688 0.16406 0 0.32812-0.023438 0.48438-0.078125 0.15625-0.050781 0.31641-0.13281 0.48438-0.25z"/>
  </symbol>
  <symbol id="b" overflow="visible">
   <path d="m2.2812-1.8438c-0.074219-0.03125-0.14844-0.050781-0.21875-0.0625-0.074219-0.019531-0.14844-0.03125-0.21875-0.03125-0.21094 0-0.37109 0.070312-0.48438 0.20312-0.10547 0.125-0.15625 0.3125-0.15625 0.5625v1.1719h-0.8125v-2.5312h0.8125v0.40625c0.10156-0.16406 0.22266-0.28516 0.35938-0.35938 0.13281-0.070313 0.29688-0.10938 0.48438-0.10938h0.09375c0.03125 0 0.070313 0.007812 0.125 0.015625z"/>
  </symbol>
  <symbol id="a" overflow="visible">
   <path d="m2.9219-1.2812v0.23438h-1.8906c0.019531 0.1875 0.085938 0.33594 0.20312 0.4375 0.11328 0.09375 0.28125 0.14062 0.5 0.14062 0.16406 0 0.33594-0.023438 0.51562-0.078125 0.17578-0.050781 0.35938-0.12891 0.54688-0.23438v0.625c-0.1875 0.074219-0.38281 0.125-0.57812 0.15625-0.1875 0.039062-0.375 0.0625-0.5625 0.0625-0.46094 0-0.82031-0.11328-1.0781-0.34375-0.25-0.23828-0.375-0.56641-0.375-0.98438 0-0.41406 0.125-0.73828 0.375-0.96875 0.25-0.23828 0.59375-0.35938 1.0312-0.35938 0.39453 0 0.71094 0.12109 0.95312 0.35938 0.23828 0.24219 0.35938 0.55859 0.35938 0.95312zm-0.82812-0.26562c0-0.15625-0.046875-0.28125-0.14062-0.375s-0.21094-0.14062-0.34375-0.14062c-0.16797 0-0.29688 0.046875-0.39062 0.14062-0.09375 0.085937-0.15625 0.21094-0.1875 0.375z"/>
  </symbol>
  <symbol id="g" overflow="visible">
   <path d="m1.5312-1.1406c-0.16797 0-0.29688 0.03125-0.39062 0.09375-0.085937 0.054687-0.125 0.13672-0.125 0.25 0 0.10547 0.03125 0.1875 0.09375 0.25 0.070313 0.054687 0.17188 0.078125 0.29688 0.078125 0.15625 0 0.28516-0.050781 0.39062-0.15625 0.10156-0.11328 0.15625-0.25391 0.15625-0.42188v-0.09375zm1.2344-0.3125v1.4531h-0.8125v-0.375c-0.11719 0.15625-0.24219 0.27344-0.375 0.34375-0.13672 0.0625-0.30469 0.09375-0.5 0.09375-0.26172 0-0.47656-0.070312-0.64062-0.21875-0.15625-0.15625-0.23438-0.35938-0.23438-0.60938 0-0.28906 0.097656-0.50391 0.29688-0.64062 0.20703-0.14453 0.53125-0.21875 0.96875-0.21875h0.48438v-0.0625c0-0.125-0.054687-0.21875-0.15625-0.28125-0.10547-0.0625-0.26172-0.09375-0.46875-0.09375-0.17969 0-0.34375 0.023438-0.5 0.0625-0.14844 0.03125-0.28125 0.085938-0.40625 0.15625v-0.625c0.17578-0.039062 0.34766-0.070312 0.51562-0.09375 0.17578-0.019531 0.35156-0.03125 0.53125-0.03125 0.45703 0 0.78516 0.089844 0.98438 0.26562 0.20703 0.17969 0.3125 0.46875 0.3125 0.875z"/>
  </symbol>
  <symbol id="c" overflow="visible">
   <path d="m1.2812-3.2656v0.73438h0.82812v0.57812h-0.82812v1.0781c0 0.11719 0.019531 0.19531 0.0625 0.23438 0.050781 0.042969 0.14453 0.0625 0.28125 0.0625h0.42188v0.57812h-0.70312c-0.32422 0-0.55469-0.066406-0.6875-0.20312-0.125-0.13281-0.1875-0.35938-0.1875-0.67188v-1.0781h-0.40625v-0.57812h0.40625v-0.73438z"/>
  </symbol>
  <symbol id="k" overflow="visible">
   <path d="m2.1094-2.1719v-1.3594h0.82812v3.5312h-0.82812v-0.35938c-0.10547 0.14844-0.22656 0.25781-0.35938 0.32812-0.13672 0.0625-0.29297 0.09375-0.46875 0.09375-0.3125 0-0.57422-0.125-0.78125-0.375-0.19922-0.25-0.29688-0.56641-0.29688-0.95312 0-0.39453 0.097656-0.71094 0.29688-0.95312 0.20703-0.25 0.46875-0.375 0.78125-0.375 0.17578 0 0.33203 0.039062 0.46875 0.10938 0.13281 0.0625 0.25391 0.16797 0.35938 0.3125zm-0.53125 1.6562c0.17578 0 0.30469-0.0625 0.39062-0.1875 0.09375-0.13281 0.14062-0.32031 0.14062-0.5625 0-0.23828-0.046875-0.42188-0.14062-0.54688-0.085938-0.13281-0.21484-0.20312-0.39062-0.20312-0.16797 0-0.29688 0.070313-0.39062 0.20312-0.09375 0.125-0.14062 0.30859-0.14062 0.54688 0 0.24219 0.046875 0.42969 0.14062 0.5625 0.09375 0.125 0.22266 0.1875 0.39062 0.1875z"/>
  </symbol>
  <symbol id="j" overflow="visible">
   <path d="m1.7344-0.51562c0.17578 0 0.3125-0.0625 0.40625-0.1875 0.09375-0.13281 0.14062-0.32031 0.14062-0.5625 0-0.23828-0.046875-0.42188-0.14062-0.54688-0.09375-0.13281-0.23047-0.20312-0.40625-0.20312-0.16797 0-0.29688 0.070313-0.39062 0.20312-0.09375 0.125-0.14062 0.30859-0.14062 0.54688 0 0.24219 0.046875 0.42969 0.14062 0.5625 0.09375 0.125 0.22266 0.1875 0.39062 0.1875zm-0.53125-1.6562c0.11328-0.14453 0.23828-0.25 0.375-0.3125 0.13281-0.070313 0.28906-0.10938 0.46875-0.10938 0.3125 0 0.56641 0.125 0.76562 0.375 0.19531 0.24219 0.29688 0.55859 0.29688 0.95312 0 0.38672-0.10156 0.70312-0.29688 0.95312-0.19922 0.25-0.45312 0.375-0.76562 0.375-0.17969 0-0.33594-0.03125-0.46875-0.09375-0.13672-0.070312-0.26172-0.17969-0.375-0.32812v0.35938h-0.8125v-3.5312h0.8125z"/>
  </symbol>
  <symbol id="f" overflow="visible">
   <path d="m0.0625-2.5312h0.8125l0.67188 1.7188 0.57812-1.7188h0.8125l-1.0625 2.7656c-0.10547 0.28125-0.23047 0.47656-0.375 0.59375-0.14844 0.11328-0.33594 0.17188-0.5625 0.17188h-0.46875v-0.53125h0.25c0.13281 0 0.23438-0.023438 0.29688-0.0625 0.0625-0.042969 0.11328-0.12109 0.15625-0.23438l0.015625-0.078125z"/>
  </symbol>
  <symbol id="i" overflow="visible">
   <path d="m1.7812-2.0781c0.13281 0 0.23828-0.023437 0.3125-0.078125 0.070312-0.0625 0.10938-0.15625 0.10938-0.28125 0-0.11328-0.039063-0.20312-0.10938-0.26562-0.074219-0.0625-0.17969-0.09375-0.3125-0.09375h-0.48438v0.71875zm0.03125 1.4844c0.17578 0 0.30469-0.035156 0.39062-0.10938 0.09375-0.070313 0.14062-0.1875 0.14062-0.34375 0-0.14453-0.046875-0.25391-0.14062-0.32812-0.085937-0.070312-0.21484-0.10938-0.39062-0.10938h-0.51562v0.89062zm0.8125-1.2188c0.1875 0.054688 0.32812 0.15234 0.42188 0.29688 0.10156 0.14844 0.15625 0.32812 0.15625 0.54688 0 0.32422-0.10938 0.57031-0.32812 0.73438-0.21875 0.15625-0.55469 0.23438-1 0.23438h-1.4531v-3.3906h1.3125c0.46875 0 0.80469 0.074219 1.0156 0.21875 0.21875 0.14844 0.32812 0.375 0.32812 0.6875 0 0.16797-0.042969 0.30859-0.125 0.42188-0.074219 0.11719-0.18359 0.19922-0.32812 0.25z"/>
  </symbol>
  <symbol id="h" overflow="visible">
   <path d="m0.39062-2.5312h0.8125v2.5312h-0.8125zm0-1h0.8125v0.67188h-0.8125z"/>
  </symbol>
  <symbol id="e" overflow="visible">
   <path d="m2.9375-1.5469v1.5469h-0.8125v-1.1875c0-0.21875-0.007812-0.36719-0.015625-0.45312-0.011719-0.082031-0.027344-0.14062-0.046875-0.17188-0.03125-0.0625-0.078125-0.10156-0.14062-0.125-0.054687-0.03125-0.10938-0.046875-0.17188-0.046875-0.17969 0-0.3125 0.070313-0.40625 0.20312-0.09375 0.125-0.14062 0.30469-0.14062 0.53125v1.25h-0.8125v-2.5312h0.8125v0.35938c0.125-0.14453 0.25391-0.25 0.39062-0.3125 0.13281-0.070313 0.28516-0.10938 0.45312-0.10938 0.28906 0 0.50781 0.089844 0.65625 0.26562 0.15625 0.17969 0.23438 0.4375 0.23438 0.78125z"/>
  </symbol>
  <symbol id="v" overflow="visible">
   <path d="m1.2969-2.7188v2.0625h0.3125c0.35156 0 0.625-0.085938 0.8125-0.26562 0.1875-0.17578 0.28125-0.42969 0.28125-0.76562 0-0.34375-0.09375-0.59766-0.28125-0.76562-0.1875-0.17578-0.46094-0.26562-0.8125-0.26562zm-0.875-0.67188h0.92188c0.50781 0 0.89062 0.042969 1.1406 0.125 0.25781 0.074219 0.47656 0.19531 0.65625 0.35938 0.15625 0.15625 0.26953 0.33594 0.34375 0.53125 0.082031 0.19922 0.125 0.42969 0.125 0.6875 0 0.25-0.042969 0.47656-0.125 0.67188-0.074219 0.19922-0.1875 0.375-0.34375 0.53125-0.17969 0.17969-0.39844 0.30469-0.65625 0.375-0.25 0.074219-0.63281 0.10938-1.1406 0.10938h-0.92188z"/>
  </symbol>
  <symbol id="u" overflow="visible">
   <path d="m2.375-2.4531v0.60938c-0.17969-0.070312-0.35156-0.125-0.51562-0.15625-0.15625-0.039062-0.30859-0.0625-0.45312-0.0625-0.14844 0-0.26172 0.023438-0.34375 0.0625-0.074219 0.042969-0.10938 0.10156-0.10938 0.17188 0 0.0625 0.023437 0.11719 0.078125 0.15625 0.0625 0.03125 0.16406 0.058594 0.3125 0.078125l0.14062 0.015625c0.41406 0.054687 0.69531 0.14062 0.84375 0.26562 0.14453 0.11719 0.21875 0.30469 0.21875 0.5625 0 0.27344-0.10547 0.47656-0.3125 0.60938-0.19922 0.13672-0.49609 0.20312-0.89062 0.20312-0.16797 0-0.33984-0.015625-0.51562-0.046875-0.17969-0.019531-0.35938-0.054688-0.54688-0.10938v-0.60938c0.15625 0.074219 0.31641 0.13281 0.48438 0.17188 0.17578 0.042969 0.35156 0.0625 0.53125 0.0625 0.15625 0 0.26953-0.019531 0.34375-0.0625 0.082031-0.050781 0.125-0.11719 0.125-0.20312 0-0.070313-0.027344-0.125-0.078125-0.15625-0.054688-0.039063-0.16406-0.070313-0.32812-0.09375l-0.14062-0.015625c-0.36719-0.039062-0.62109-0.125-0.76562-0.25-0.14844-0.125-0.21875-0.3125-0.21875-0.5625 0-0.25781 0.09375-0.45312 0.28125-0.57812 0.1875-0.13281 0.46875-0.20312 0.84375-0.20312 0.15625 0 0.3125 0.011719 0.46875 0.03125 0.16406 0.023438 0.34766 0.058594 0.54688 0.10938z"/>
  </symbol>
  <symbol id="t" overflow="visible">
   <path d="m2.1094-0.4375c-0.10547 0.15625-0.22656 0.27344-0.35938 0.34375-0.13672 0.0625-0.29297 0.09375-0.46875 0.09375-0.3125 0-0.57422-0.11719-0.78125-0.35938-0.19922-0.25-0.29688-0.5625-0.29688-0.9375s0.097656-0.67969 0.29688-0.92188c0.20703-0.25 0.46875-0.375 0.78125-0.375 0.17578 0 0.33203 0.039062 0.46875 0.10938 0.13281 0.0625 0.25391 0.17188 0.35938 0.32812v-0.375h0.82812v2.2812c0 0.40625-0.13281 0.71094-0.39062 0.92188-0.26172 0.21875-0.63672 0.32812-1.125 0.32812-0.15625 0-0.30859-0.015625-0.45312-0.046875-0.14844-0.023437-0.29688-0.054687-0.45312-0.09375v-0.64062c0.14453 0.082031 0.28516 0.14453 0.42188 0.1875 0.13281 0.039062 0.26953 0.0625 0.40625 0.0625 0.26953 0 0.46094-0.0625 0.57812-0.1875 0.125-0.11719 0.1875-0.28906 0.1875-0.53125zm-0.53125-1.5781c-0.16797 0-0.29688 0.0625-0.39062 0.1875s-0.14062 0.30469-0.14062 0.53125c0 0.23047 0.046875 0.40625 0.14062 0.53125 0.09375 0.11719 0.22266 0.17188 0.39062 0.17188 0.16406 0 0.29688-0.054688 0.39062-0.17188 0.09375-0.125 0.14062-0.30078 0.14062-0.53125 0-0.22656-0.046875-0.40625-0.14062-0.53125s-0.22656-0.1875-0.39062-0.1875z"/>
  </symbol>
  <symbol id="s" overflow="visible">
   <path d="m2.0625-3.5312v0.53125h-0.45312c-0.11719 0-0.19922 0.023438-0.25 0.0625-0.042969 0.042969-0.0625 0.11719-0.0625 0.21875v0.1875h0.70312v0.57812h-0.70312v1.9531h-0.8125v-1.9531h-0.39062v-0.57812h0.39062v-0.1875c0-0.26953 0.078125-0.47266 0.23438-0.60938 0.15625-0.13281 0.39453-0.20312 0.71875-0.20312z"/>
  </symbol>
  <symbol id="d" overflow="visible">
   <path d="m1.5938-2.0156c-0.17969 0-0.3125 0.070313-0.40625 0.20312-0.09375 0.125-0.14062 0.30859-0.14062 0.54688 0 0.24219 0.046875 0.42969 0.14062 0.5625 0.09375 0.125 0.22656 0.1875 0.40625 0.1875 0.17578 0 0.3125-0.0625 0.40625-0.1875 0.09375-0.13281 0.14062-0.32031 0.14062-0.5625 0-0.23828-0.046875-0.42188-0.14062-0.54688-0.09375-0.13281-0.23047-0.20312-0.40625-0.20312zm0-0.57812c0.4375 0 0.77344 0.12109 1.0156 0.35938 0.25 0.23047 0.375 0.55469 0.375 0.96875 0 0.41797-0.125 0.74609-0.375 0.98438-0.24219 0.23047-0.57812 0.34375-1.0156 0.34375s-0.78125-0.11328-1.0312-0.34375c-0.24219-0.23828-0.35938-0.56641-0.35938-0.98438 0-0.41406 0.11719-0.73828 0.35938-0.96875 0.25-0.23828 0.59375-0.35938 1.0312-0.35938z"/>
  </symbol>
  <symbol id="r" overflow="visible">
   <path d="m2.7344-2.1094c0.10156-0.16406 0.22266-0.28516 0.35938-0.35938 0.14453-0.082031 0.30469-0.125 0.48438-0.125 0.28906 0 0.50781 0.089844 0.65625 0.26562 0.15625 0.17969 0.23438 0.4375 0.23438 0.78125v1.5469h-0.8125v-1.3281-0.0625-0.078125c0-0.1875-0.027344-0.31641-0.078125-0.39062-0.054687-0.082031-0.13672-0.125-0.25-0.125-0.15625 0-0.27734 0.0625-0.35938 0.1875-0.085938 0.125-0.13281 0.30859-0.14062 0.54688v1.25h-0.8125v-1.3281c0-0.28125-0.027344-0.45703-0.078125-0.53125-0.042969-0.082031-0.125-0.125-0.25-0.125-0.15625 0-0.27734 0.0625-0.35938 0.1875-0.085937 0.125-0.125 0.30859-0.125 0.54688v1.25h-0.8125v-2.5312h0.8125v0.35938c0.09375-0.13281 0.20312-0.23828 0.32812-0.3125 0.13281-0.070313 0.28125-0.10938 0.4375-0.10938 0.17578 0 0.33203 0.042969 0.46875 0.125 0.13281 0.085938 0.23438 0.20312 0.29688 0.35938z"/>
  </symbol>
  <symbol id="q" overflow="visible">
   <path d="m2.9375-1.5469v1.5469h-0.8125v-1.1719c0-0.22656-0.007812-0.38281-0.015625-0.46875-0.011719-0.082031-0.027344-0.14062-0.046875-0.17188-0.03125-0.0625-0.078125-0.10156-0.14062-0.125-0.054687-0.03125-0.10938-0.046875-0.17188-0.046875-0.17969 0-0.3125 0.070313-0.40625 0.20312-0.09375 0.125-0.14062 0.30469-0.14062 0.53125v1.25h-0.8125v-3.5312h0.8125v1.3594c0.125-0.14453 0.25391-0.25 0.39062-0.3125 0.13281-0.070313 0.28516-0.10938 0.45312-0.10938 0.28906 0 0.50781 0.089844 0.65625 0.26562 0.15625 0.17969 0.23438 0.4375 0.23438 0.78125z"/>
  </symbol>
  <symbol id="p" overflow="visible">
   <path d="m0.42188-3.3906h0.98438l1.2188 2.3281v-2.3281h0.82812v3.3906h-0.96875l-1.2344-2.3281v2.3281h-0.82812z"/>
  </symbol>
  <symbol id="o" overflow="visible">
   <path d="m0.35938-0.98438v-1.5469h0.8125v0.25 0.51562 0.42188c0 0.19922 0.003906 0.34375 0.015625 0.4375 0.007812 0.085938 0.03125 0.14844 0.0625 0.1875 0.03125 0.054688 0.070312 0.09375 0.125 0.125 0.050781 0.03125 0.11328 0.046875 0.1875 0.046875 0.16406 0 0.29688-0.0625 0.39062-0.1875 0.10156-0.13281 0.15625-0.31641 0.15625-0.54688v-1.25h0.79688v2.5312h-0.79688v-0.35938c-0.125 0.14844-0.25781 0.25781-0.39062 0.32812-0.13672 0.0625-0.28906 0.09375-0.45312 0.09375-0.29297 0-0.51562-0.085938-0.67188-0.26562-0.15625-0.17578-0.23438-0.4375-0.23438-0.78125z"/>
  </symbol>
  <symbol id="n" overflow="visible">
   <path d="m0.42188-3.3906h1.4531c0.42578 0 0.75391 0.10156 0.98438 0.29688 0.22656 0.1875 0.34375 0.46094 0.34375 0.8125 0 0.35547-0.11719 0.63281-0.34375 0.82812-0.23047 0.1875-0.55859 0.28125-0.98438 0.28125h-0.57812v1.1719h-0.875zm0.875 0.64062v0.9375h0.48438c0.16406 0 0.29688-0.035156 0.39062-0.10938 0.09375-0.082031 0.14062-0.20312 0.14062-0.35938 0-0.14453-0.046875-0.25781-0.14062-0.34375-0.09375-0.082031-0.22656-0.125-0.39062-0.125z"/>
  </symbol>
  <symbol id="m" overflow="visible">
   <path d="m0.39062-2.5312h0.8125v2.4844c0 0.34375-0.085937 0.60156-0.25 0.78125-0.15625 0.17578-0.39062 0.26562-0.70312 0.26562h-0.40625v-0.53125h0.14062c0.15625 0 0.25781-0.039062 0.3125-0.10938 0.0625-0.0625 0.09375-0.19922 0.09375-0.40625zm0-1h0.8125v0.67188h-0.8125z"/>
  </symbol>
  <symbol id="l" overflow="visible">
   <path d="m2.4375-2.4531v0.65625c-0.10547-0.070313-0.21484-0.125-0.32812-0.15625-0.11719-0.039063-0.23047-0.0625-0.34375-0.0625-0.23047 0-0.40625 0.070313-0.53125 0.20312-0.125 0.125-0.1875 0.30859-0.1875 0.54688 0 0.24219 0.0625 0.42969 0.1875 0.5625 0.125 0.125 0.30078 0.1875 0.53125 0.1875 0.125 0 0.24219-0.015625 0.35938-0.046875 0.11328-0.039062 0.21875-0.097656 0.3125-0.17188v0.65625c-0.125 0.054688-0.25781 0.085938-0.39062 0.10938-0.125 0.019531-0.25781 0.03125-0.39062 0.03125-0.46094 0-0.82031-0.11328-1.0781-0.34375-0.25-0.23828-0.375-0.56641-0.375-0.98438 0-0.41406 0.125-0.73828 0.375-0.96875 0.25781-0.23828 0.61719-0.35938 1.0781-0.35938 0.13281 0 0.26562 0.011719 0.39062 0.03125 0.13281 0.023438 0.26562 0.058594 0.39062 0.10938z"/>
  </symbol>
 </defs>
 <g>
  <path d="m190.07 159.12c63.973-150.2 292.05-130.73 330.99 26.887 43.574 8.3438 81.59 37.086 100.13 77.879 128.88 58.41 91.789 262.38-58.41 262.38h-425.56c-143.71 0-186.36-189.14-70.465-255.89 12.98-59.336 63.047-103.84 123.31-111.26zm38.012 266.09c-13.906 14.836-37.086-7.418-22.25-22.25 35.23-36.16 94.57-50.066 143.71-50.066 49.141 0 109.4 13.906 144.64 50.066 13.906 14.836-8.3438 37.086-22.25 22.25-29.668-29.668-81.59-40.793-122.38-40.793-39.867 0-92.715 11.125-121.46 40.793zm217.88-176.16c-16.688 0-30.598 13.906-30.598 30.598 0 15.762 13.906 29.668 30.598 29.668 15.762 0 29.668-13.906 29.668-29.668 0-16.688-13.906-30.598-29.668-30.598zm-191.92 0c16.688 0 30.598 13.906 30.598 30.598 0 15.762-13.906 29.668-30.598 29.668-16.688 0-29.668-13.906-29.668-29.668 0-16.688 12.98-30.598 29.668-30.598zm337.48 45.43c107.55 33.379 83.445 191.92-28.742 191.92h-425.56c-108.48 0-137.22-151.12-34.305-189.14 2.7812-55.629 48.211-100.13 104.77-100.13h10.199c38.012-149.27 259.6-129.8 268.88 25.031h7.418c45.43 0 84.371 30.598 97.352 72.316z" fill-rule="evenodd"/>
  <use y="540.183594" xlink:href="#w"/>
  <use x="3.402344" y="540.183594" xlink:href="#b"/>
  <use x="5.6875" y="540.183594" xlink:href="#a"/>
  <use x="8.832031" y="540.183594" xlink:href="#g"/>
  <use x="11.960937" y="540.183594" xlink:href="#c"/>
  <use x="14.175781" y="540.183594" xlink:href="#a"/>
  <use x="17.320312" y="540.183594" xlink:href="#k"/>
  <use x="22.253906" y="540.183594" xlink:href="#j"/>
  <use x="25.570312" y="540.183594" xlink:href="#f"/>
  <use x="30.207031" y="540.183594" xlink:href="#i"/>
  <use x="33.742187" y="540.183594" xlink:href="#b"/>
  <use x="36.027344" y="540.183594" xlink:href="#h"/>
  <use x="37.617188" y="540.183594" xlink:href="#f"/>
  <use x="40.636719" y="540.183594" xlink:href="#g"/>
  <use x="43.765625" y="540.183594" xlink:href="#e"/>
  <use x="48.679687" y="540.183594" xlink:href="#v"/>
  <use x="52.527344" y="540.183594" xlink:href="#a"/>
  <use x="55.671875" y="540.183594" xlink:href="#u"/>
  <use x="58.429687" y="540.183594" xlink:href="#h"/>
  <use x="60.019531" y="540.183594" xlink:href="#t"/>
  <use x="63.339844" y="540.183594" xlink:href="#e"/>
  <use y="544.816406" xlink:href="#s"/>
  <use x="2.015625" y="544.816406" xlink:href="#b"/>
  <use x="4.304687" y="544.816406" xlink:href="#d"/>
  <use x="7.488281" y="544.816406" xlink:href="#r"/>
  <use x="13.933594" y="544.816406" xlink:href="#c"/>
  <use x="16.148438" y="544.816406" xlink:href="#q"/>
  <use x="19.449219" y="544.816406" xlink:href="#a"/>
  <use x="24.207031" y="544.816406" xlink:href="#p"/>
  <use x="28.085937" y="544.816406" xlink:href="#d"/>
  <use x="31.269531" y="544.816406" xlink:href="#o"/>
  <use x="34.570312" y="544.816406" xlink:href="#e"/>
  <use x="39.484375" y="544.816406" xlink:href="#n"/>
  <use x="42.882812" y="544.816406" xlink:href="#b"/>
  <use x="45.167969" y="544.816406" xlink:href="#d"/>
  <use x="48.355469" y="544.816406" xlink:href="#m"/>
  <use x="49.941406" y="544.816406" xlink:href="#a"/>
  <use x="53.085937" y="544.816406" xlink:href="#l"/>
  <use x="55.835937" y="544.816406" xlink:href="#c"/>
 </g>
</svg>
