<svg xmlns:dc="http://purl.org/dc/elements/1.1/" xmlns:cc="http://creativecommons.org/ns#" xmlns:rdf="http://www.w3.org/1999/02/22-rdf-syntax-ns#" xmlns:svg="http://www.w3.org/2000/svg" xmlns="http://www.w3.org/2000/svg" xmlns:sodipodi="http://sodipodi.sourceforge.net/DTD/sodipodi-0.dtd" xmlns:inkscape="http://www.inkscape.org/namespaces/inkscape" version="1.1" x="0px" y="0px" viewBox="0 0 100 125"><g transform="translate(0,-952.36218)"><path style="text-indent:0;text-transform:none;direction:ltr;block-progression:tb;baseline-shift:baseline;color:#000000;enable-background:accumulate;" d="m 36,981.36217 c -2.1814,0 -4,1.81858 -4,4 l 0,34.00003 c 0,2.1814 1.8186,4 4,4 l 56,0 c 2.1814,0 4,-1.8186 4,-4 l 0,-34.00003 c 0,-2.18142 -1.8186,-4 -4,-4 l -56,0 z m 3.4062,4 49.1876,0 L 64,1006.7059 39.4062,985.36217 z M 36,987.67467 52.4062,1001.9247 36,1016.8309 36,987.67467 z m 56,0 0,29.15623 L 75.5938,1001.9247 92,987.67467 z m -86,0.6875 c -1.1046,0 -2,0.8954 -2,2 0,1.1046 0.8954,2 2,2 l 20,0 c 1.1046,0 2,-0.8954 2,-2 0,-1.1046 -0.8954,-2 -2,-2 l -20,0 z m 4,12.00003 c -1.1046,0 -2,0.8954 -2,2 0,1.1046 0.8954,2 2,2 l 16,0 c 1.1046,0 2,-0.8954 2,-2 0,-1.1046 -0.8954,-2 -2,-2 l -16,0 z m 45.4375,4.1875 7.25,6.3125 a 2.0001998,2.0001998 0 0 0 2.625,0 l 7.25,-6.3125 16.2813,14.8125 -49.6876,0 16.2813,-14.8125 z M 14,1012.3622 c -1.1046,0 -2,0.8954 -2,2 0,1.1046 0.8954,2 2,2 l 12,0 c 1.1046,0 2,-0.8954 2,-2 0,-1.1046 -0.8954,-2 -2,-2 l -12,0 z" fill="#000000" fill-opacity="1" stroke="none" marker="none" visibility="visible" display="inline" overflow="visible"/></g></svg>
