<svg xmlns="http://www.w3.org/2000/svg" xmlns:xlink="http://www.w3.org/1999/xlink" xml:space="preserve" version="1.1" style="shape-rendering:geometricPrecision;text-rendering:geometricPrecision;image-rendering:optimizeQuality;" viewBox="0 0 302 338.75" x="0px" y="0px" fill-rule="evenodd" clip-rule="evenodd"><defs><style type="text/css">

    .fil0 {fill:#ff3860}

  </style></defs><g><path class="fil0" d="M17 0c40,20 84,54 126,94 55,-41 113,-76 159,-94 -57,39 -103,74 -144,109 54,54 102,115 128,162 -53,-59 -99,-106 -145,-147 -45,40 -83,81 -122,129 -3,4 -17,-2 -19,-18 27,-41 73,-86 123,-126 -38,-32 -77,-60 -122,-88 -4,-3 0,-17 16,-21z"/></g></svg>
