<svg xmlns="http://www.w3.org/2000/svg" xmlns:xlink="http://www.w3.org/1999/xlink" version="1.1" x="0px" y="0px" viewBox="0 0 512 640" style="enable-background:new 0 0 512 512;" xml:space="preserve"><g><path d="M174.0014648,207.8156891l29.6972656,6.2495117l11.6884766,28.0083008   c0.5498047,1.3154297,1.6704102,2.1503906,2.9975586,2.2333984c0.0727539,0.0048828,0.1445312,0.0068359,0.2163086,0.0068359   c1.2421875,0,2.3666992-0.6787109,3.0380859-1.8466797l15.1201172-26.3129883l30.246582-2.4614258   c1.4208984-0.1152344,2.5620117-0.9223633,3.0527344-2.1586914c0.4907227-1.2368164,0.2128906-2.6069336-0.7441406-3.6660156   l-20.3520508-22.5112305l7.0058594-29.5273438c0.3291016-1.387207-0.0859375-2.722168-1.1108398-3.5703125   s-2.4135742-1.0073242-3.715332-0.4248047l-27.6987305,12.3999023l-25.9174805-15.7875977   c-1.2172852-0.7431641-2.6166992-0.7597656-3.7392578-0.046875c-1.1235352,0.7128906-1.7036133,1.9848633-1.5517578,3.402832   l3.2338867,30.1743164l-23.0234375,19.7695312c-1.0820312,0.9291992-1.5307617,2.2529297-1.2001953,3.5419922   C171.5751953,206.5769196,172.6054688,207.5222321,174.0014648,207.8156891z M199.8149414,186.1530914   c1.1699219-1.0043945,1.8452148-2.7089844,1.6811523-4.2416992l-2.7543945-25.6987305l22.0732422,13.4458008   c1.3164062,0.8022461,3.1469727,0.9189453,4.5532227,0.2880859l23.5898438-10.5605469l-5.9667969,25.1474609   c-0.355957,1.5,0.0996094,3.2758789,1.1337891,4.4189453l17.3330078,19.171875l-25.7602539,2.0961914   c-1.5371094,0.1245117-3.0854492,1.1069336-3.8530273,2.4438477l-12.8774414,22.4091797l-9.9545898-23.8530273   c-0.59375-1.421875-2.0058594-2.590332-3.5141602-2.9077148l-25.2919922-5.3222656L199.8149414,186.1530914z"/><path d="M180.5454102,80.0573807l15.9384766,3.3540039l6.2734375,15.0322266   c0.5493164,1.315918,1.6704102,2.1513672,2.9985352,2.2348633c0.0722656,0.0043945,0.144043,0.0068359,0.2158203,0.0068359   c1.2431641,0,2.3671875-0.6791992,3.0380859-1.8476562L217.125,84.7155838l16.2329102-1.3208008   c1.421875-0.1152344,2.5629883-0.9228516,3.0537109-2.159668c0.4902344-1.2373047,0.2119141-2.6074219-0.7446289-3.6650391   l-10.9228516-12.0820312l3.7602539-15.8481445c0.3291016-1.387207-0.0864258-2.722168-1.1108398-3.5703125   c-1.0244141-0.8486328-2.4130859-1.0078125-3.7163086-0.4248047l-14.8657227,6.6552734l-13.9101562-8.4731445   c-1.2177734-0.7426758-2.6162109-0.7592773-3.7392578-0.046875c-1.1235352,0.7128906-1.7036133,1.9848633-1.5517578,3.402832   l1.7353516,16.1948242l-12.3564453,10.6103516c-1.0820312,0.9291992-1.5307617,2.2529297-1.2001953,3.5419922   C178.1191406,78.8186111,179.1494141,79.7639236,180.5454102,80.0573807z M195.6938477,67.5524979   c1.168457-1.0043945,1.8432617-2.7084961,1.6791992-4.2407227l-1.2558594-11.71875l10.065918,6.1313477   c1.3164062,0.8027344,3.1469727,0.9179688,4.5532227,0.2880859l10.7578125-4.815918l-2.7211914,11.4677734   c-0.355957,1.5,0.0996094,3.2758789,1.1333008,4.4189453l7.9042969,8.7431641l-11.7490234,0.9560547   c-1.5356445,0.1254883-3.0834961,1.1074219-3.8510742,2.4433594l-5.8725586,10.2192383l-4.5390625-10.8769531   c-0.59375-1.4223633-2.0058594-2.5917969-3.5146484-2.9091797l-11.5332031-2.4272461L195.6938477,67.5524979z"/><path d="M89.7128906,306.6066895c0.5493164,1.3164062,1.6699219,2.1523438,2.9980469,2.2363281   c0.0727539,0.0048828,0.1450195,0.0068359,0.2172852,0.0068359c1.2421875,0,2.3662109-0.6787109,3.0375977-1.8466797   l7.5092773-13.0683594l15.0185547-1.2226562c1.4228516-0.1142578,2.5654297-0.921875,3.0561523-2.1601562   s0.2114258-2.609375-0.7446289-3.6640625l-10.1074219-11.1806641l3.4790039-14.6640625   c0.3291016-1.3876953-0.0859375-2.7216797-1.1108398-3.5703125s-2.4135742-1.0087891-3.715332-0.4248047l-13.7563477,6.1582031   l-12.871582-7.8408051c-1.2172852-0.7412109-2.6147461-0.7587891-3.7392578-0.046875   c-1.1235352,0.7128754-1.7036133,1.9843597-1.5517578,3.4023285l1.605957,14.9863281l-11.4355469,9.8193359   c-1.0810547,0.9296875-1.5292969,2.2539062-1.1987305,3.5419922c0.3310547,1.2880859,1.3613281,2.2324219,2.7563477,2.5263672   l14.7485352,3.1025391L89.7128906,306.6066895z M83.3823242,277.8840332   c1.1708984-1.0029297,1.847168-2.7080078,1.6826172-4.2421875l-1.1264648-10.5097656l9.0273438,5.4990234   c1.3164062,0.8017578,3.1459961,0.9169922,4.5532227,0.2871094l9.6474609-4.3183594l-2.4394531,10.28125   c-0.3569336,1.5,0.0976562,3.2763672,1.1323242,4.421875l7.0888672,7.8408203l-10.5366211,0.8574219   c-1.5371094,0.1259766-3.0854492,1.109375-3.8510742,2.4433594l-5.2661133,9.1650391l-4.0712891-9.7548828   c-0.59375-1.4228516-2.0063477-2.5917969-3.5146484-2.9091797l-10.3432617-2.1757812L83.3823242,277.8840332z"/><path d="M315.7290039,94.8147049l-5.6855469-1.9223633l1.875,5.7011719   c6.159668,18.7304688,9.2827148,38.2944412,9.2827148,58.1489334c0,102.5605316-83.4394531,185.9999847-186,185.9999847   c-20.4052734,0-40.4594727-3.2822266-59.605957-9.7558594l-5.6860352-1.9228516l1.8754883,5.7021484   c12.5263672,38.0898438,36.3012695,70.8457031,68.7543945,94.7265625c33.1176758,24.3691406,72.4213867,37.25,113.6621094,37.25   c105.8691406,0,192-86.1308594,192-192C446.2011719,194.3093414,393.7685547,121.1980057,315.7290039,94.8147049z    M254.2011719,462.7424316c-39.9526367,0-78.0263672-12.4775391-110.105957-36.0830078   c-29.8325195-21.9521484-52.0961914-51.6445312-64.6621094-86.1425781   c18.0141602,5.4609375,36.7441406,8.2255859,55.7680664,8.2255859c105.8691406,0,192-86.1308594,192-191.9999847   c0-18.4614258-2.6166992-36.6801834-7.784668-54.2480545c72.4897461,27.1025467,120.784668,96.3837967,120.784668,174.2480469   C440.2011719,379.3029785,356.7617188,462.7424316,254.2011719,462.7424316z"/></g></svg>
