<svg xmlns="http://www.w3.org/2000/svg" xmlns:xlink="http://www.w3.org/1999/xlink"
     version="1.1"
     x="0px"
     y="0px"
     viewBox="0 0 100 125"
     style="enable-background:new 0 0 100 100;"
     xml:space="preserve">
  <path d="M6.707,78.707l37-37c0.391-0.391,0.391-1.023,0-1.414s-1.023-0.391-1.414,0l-37,37c-0.391,0.391-0.391,1.023,0,1.414  C5.488,78.902,5.744,79,6,79S6.512,78.902,6.707,78.707z"/><path d="M14.293,62.293l-7,7c-0.391,0.391-0.391,1.023,0,1.414C7.488,70.902,7.744,71,8,71s0.512-0.098,0.707-0.293l7-7  c0.391-0.391,0.391-1.023,0-1.414S14.684,61.902,14.293,62.293z"/><path d="M25,54c0.256,0,0.512-0.098,0.707-0.293l10-10c0.391-0.391,0.391-1.023,0-1.414s-1.023-0.391-1.414,0l-10,10  c-0.391,0.391-0.391,1.023,0,1.414C24.488,53.902,24.744,54,25,54z"/><path d="M48.707,41.293c-0.391-0.391-1.023-0.391-1.414,0l-41,41c-0.391,0.391-0.391,1.023,0,1.414C6.488,83.902,6.744,84,7,84  s0.512-0.098,0.707-0.293l41-41C49.098,42.316,49.098,41.684,48.707,41.293z"/><path d="M52.707,43.293c-0.391-0.391-1.023-0.391-1.414,0l-43,43c-0.391,0.391-0.391,1.023,0,1.414C8.488,87.902,8.744,88,9,88  s0.512-0.098,0.707-0.293l43-43C53.098,44.316,53.098,43.684,52.707,43.293z"/><path d="M56.707,45.293c-0.391-0.391-1.023-0.391-1.414,0l-44,44c-0.391,0.391-0.391,1.023,0,1.414C11.488,90.902,11.744,91,12,91  s0.512-0.098,0.707-0.293l44-44C57.098,46.316,57.098,45.684,56.707,45.293z"/><path d="M89.707,72.293c-0.391-0.391-1.023-0.391-1.414,0l-21,21c-0.391,0.391-0.391,1.023,0,1.414C67.488,94.902,67.744,95,68,95  s0.512-0.098,0.707-0.293l21-21C90.098,73.316,90.098,72.684,89.707,72.293z"/><path d="M92.707,75.293c-0.391-0.391-1.023-0.391-1.414,0l-18,18c-0.391,0.391-0.391,1.023,0,1.414C73.488,94.902,73.744,95,74,95  s0.512-0.098,0.707-0.293l18-18C93.098,76.316,93.098,75.684,92.707,75.293z"/><path d="M92.293,80.293l-13,13c-0.391,0.391-0.391,1.023,0,1.414C79.488,94.902,79.744,95,80,95s0.512-0.098,0.707-0.293l13-13  c0.391-0.391,0.391-1.023,0-1.414S92.684,79.902,92.293,80.293z"/><path d="M92.293,86.293l-6,6c-0.391,0.391-0.391,1.023,0,1.414C86.488,93.902,86.744,94,87,94s0.512-0.098,0.707-0.293l6-6  c0.391-0.391,0.391-1.023,0-1.414S92.684,85.902,92.293,86.293z"/><path d="M86.644,70.771l0.063-0.063c0.033-0.033,0.047-0.075,0.074-0.111C91.938,63.739,95,55.221,95,46C95,23.393,76.607,5,54,5  c-6.284,0-12.319,1.388-17.938,4.126C35.718,9.294,35.5,9.643,35.5,10.025s0.218,0.731,0.562,0.899C49.594,17.52,58,30.96,58,46  c0,0.899-0.034,1.792-0.094,2.68L15.293,91.293c-0.391,0.391-0.391,1.023,0,1.414C15.488,92.902,15.744,93,16,93  s0.512-0.098,0.707-0.293L57.56,51.854c-0.202,1.354-0.485,2.685-0.822,3.994L20.293,92.293c-0.391,0.391-0.391,1.023,0,1.414  C20.488,93.902,20.744,94,21,94s0.512-0.098,0.707-0.293L55.43,59.984c-0.821,2.156-1.832,4.225-3.018,6.189L39.305,79.281  c-1.05,0.638-2.122,1.248-3.243,1.795c-0.344,0.167-0.562,0.516-0.562,0.898c0,0.297,0.134,0.57,0.354,0.758L25.293,93.293  c-0.391,0.391-0.391,1.023,0,1.414C25.488,94.902,25.744,95,26,95s0.512-0.098,0.707-0.293l11.061-11.061  c0.749,0.324,1.505,0.627,2.268,0.904l-8.742,8.742c-0.391,0.391-0.391,1.023,0,1.414C31.488,94.902,31.744,95,32,95  s0.512-0.098,0.707-0.293l9.451-9.451c0.826,0.25,1.657,0.479,2.497,0.675l-7.362,7.362c-0.391,0.391-0.391,1.023,0,1.414  C37.488,94.902,37.744,95,38,95s0.512-0.098,0.707-0.293l8.299-8.299c0.926,0.159,1.86,0.277,2.801,0.371l-6.514,6.514  c-0.391,0.391-0.391,1.023,0,1.414C43.488,94.902,43.744,95,44,95s0.512-0.098,0.707-0.293l7.75-7.75C52.971,86.977,53.483,87,54,87  c0.546,0,1.087-0.02,1.627-0.041l-6.334,6.334c-0.391,0.391-0.391,1.023,0,1.414C49.488,94.902,49.744,95,50,95  s0.512-0.098,0.707-0.293l7.983-7.983c1.278-0.146,2.54-0.347,3.78-0.608l-7.178,7.178c-0.391,0.391-0.391,1.023,0,1.414  C55.488,94.902,55.744,95,56,95s0.512-0.098,0.707-0.293l9.596-9.596c1.8-0.567,3.545-1.258,5.229-2.058L61.293,93.293  c-0.391,0.391-0.391,1.023,0,1.414C61.488,94.902,61.744,95,62,95s0.512-0.098,0.707-0.293l16.063-16.063  C81.737,76.387,84.387,73.736,86.644,70.771z M69.746,81.668l11.961-11.961c0.391-0.391,0.391-1.023,0-1.414s-1.023-0.391-1.414,0  L65.246,83.34c-1.363,0.412-2.758,0.745-4.179,1.006l19.64-19.639c0.391-0.391,0.391-1.023,0-1.414s-1.023-0.391-1.414,0  L57.771,84.814c-1.103,0.106-2.219,0.162-3.347,0.175l24.282-24.282c0.391-0.391,0.391-1.023,0-1.414s-1.023-0.391-1.414,0  L51.661,84.925c-0.972-0.058-1.935-0.152-2.892-0.28l26.938-26.938c0.391-0.391,0.391-1.023,0-1.414s-1.023-0.391-1.414,0  L46.337,84.248c-0.861-0.171-1.714-0.379-2.562-0.609l27.932-27.932c0.391-0.391,0.391-1.023,0-1.414s-1.023-0.391-1.414,0  L41.607,82.979c-0.777-0.262-1.55-0.547-2.313-0.858l1.246-1.246c5.587-3.437,10.161-8.06,13.468-13.468l12.699-12.699  c0.391-0.391,0.391-1.023,0-1.414s-1.023-0.391-1.414,0l-8.374,8.374c0.643-1.563,1.196-3.169,1.643-4.814l3.146-3.146  c0.391-0.391,0.391-1.023,0-1.414s-1.023-0.391-1.414,0l-0.944,0.944c0.216-1.227,0.382-2.467,0.487-3.724  c0.171-0.279,0.205-0.614,0.077-0.91C59.967,47.741,60,46.874,60,46c0-15.115-8.077-28.694-21.217-35.917  C43.595,8.036,48.704,7,54,7c21.505,0,39,17.495,39,39c0,8.788-2.924,16.904-7.848,23.434l-7.719,7.719  C75.066,78.938,72.487,80.453,69.746,81.668z"/><path d="M76,28c-4.411,0-8,3.589-8,8s3.589,8,8,8s8-3.589,8-8S80.411,28,76,28z M76,42c-3.309,0-6-2.691-6-6s2.691-6,6-6  s6,2.691,6,6S79.309,42,76,42z"/><path d="M63,15c-3.309,0-6,2.691-6,6s2.691,6,6,6s6-2.691,6-6S66.309,15,63,15z M63,25c-2.206,0-4-1.794-4-4s1.794-4,4-4  s4,1.794,4,4S65.206,25,63,25z"/><path d="M6,12h2.586l-2.293,2.293c-0.391,0.391-0.391,1.023,0,1.414C6.488,15.903,6.744,16,7,16s0.512-0.098,0.707-0.293L10,13.415  V16c0,0.552,0.447,1,1,1s1-0.448,1-1v-2.585l2.293,2.293C14.488,15.903,14.744,16,15,16s0.512-0.098,0.707-0.293  c0.391-0.391,0.391-1.023,0-1.414L13.414,12H16c0.553,0,1-0.448,1-1s-0.447-1-1-1h-2.586l2.293-2.293  c0.391-0.391,0.391-1.023,0-1.414s-1.023-0.391-1.414,0L12,8.586V6c0-0.552-0.447-1-1-1s-1,0.448-1,1v2.586L7.707,6.293  c-0.391-0.391-1.023-0.391-1.414,0s-0.391,1.023,0,1.414L8.586,10H6c-0.553,0-1,0.448-1,1S5.447,12,6,12z"/><path d="M25,22h2.586l-1.293,1.293c-0.391,0.391-0.391,1.023,0,1.414C26.488,24.903,26.744,25,27,25s0.512-0.098,0.707-0.293  L29,23.415V26c0,0.552,0.447,1,1,1s1-0.448,1-1v-2.585l1.293,1.293C32.488,24.903,32.744,25,33,25s0.512-0.098,0.707-0.293  c0.391-0.391,0.391-1.023,0-1.414L32.414,22H35c0.553,0,1-0.448,1-1s-0.447-1-1-1h-2.586l1.293-1.293  c0.391-0.391,0.391-1.023,0-1.414s-1.023-0.391-1.414,0L31,18.586V16c0-0.552-0.447-1-1-1s-1,0.448-1,1v2.586l-1.293-1.293  c-0.391-0.391-1.023-0.391-1.414,0s-0.391,1.023,0,1.414L27.586,20H25c-0.553,0-1,0.448-1,1S24.447,22,25,22z"/><path d="M16,30v2.586l-1.293-1.293c-0.391-0.391-1.023-0.391-1.414,0s-0.391,1.023,0,1.414L14.586,34H12c-0.553,0-1,0.448-1,1  s0.447,1,1,1h2.586l-1.293,1.293c-0.391,0.391-0.391,1.023,0,1.414C13.488,38.903,13.744,39,14,39s0.512-0.098,0.707-0.293  L16,37.415V40c0,0.552,0.447,1,1,1s1-0.448,1-1v-2.585l1.293,1.293C19.488,38.903,19.744,39,20,39s0.512-0.098,0.707-0.293  c0.391-0.391,0.391-1.023,0-1.414L19.414,36H22c0.553,0,1-0.448,1-1s-0.447-1-1-1h-2.586l1.293-1.293  c0.391-0.391,0.391-1.023,0-1.414s-1.023-0.391-1.414,0L18,32.586V30c0-0.552-0.447-1-1-1S16,29.448,16,30z"/>
</svg>
