<svg xmlns:dc="http://purl.org/dc/elements/1.1/" xmlns:cc="http://creativecommons.org/ns#" xmlns:rdf="http://www.w3.org/1999/02/22-rdf-syntax-ns#" xmlns:svg="http://www.w3.org/2000/svg" xmlns="http://www.w3.org/2000/svg" xmlns:sodipodi="http://sodipodi.sourceforge.net/DTD/sodipodi-0.dtd" xmlns:inkscape="http://www.inkscape.org/namespaces/inkscape" version="1.1" x="0px" y="0px" viewBox="0 0 100 125"><g transform="translate(0,-952.36218)"><g transform="translate(4.9994003,961.37793)"><path d="M 50.704724,0.03543307 C 44.007874,1.9842518 37.594488,5.5984249 32.917323,10.842519 31.677165,10.240157 30.11811,9.9566923 28.877953,9.9921254 25.795276,10.062992 22.5,11.692913 19.452756,14.846456 c -4.996063,-0.496063 -9.425197,1.700787 -11.7637796,5.952755 -4.464567,0.602363 -7.22834648,3.720473 -7.65354333,7.299212 -0.38976378,3.720473 1.70078743,7.830709 6.37795273,9.779527 0.1417323,0.07087 0.2834646,0.1063 0.4251969,0.1063 l 19.6653543,0 c 1.452756,6.980314 4.996063,13.145668 10.098425,17.964565 -0.779527,0.885827 -1.452756,1.877953 -2.055118,2.940945 -6.129921,0.744095 -9.956693,4.996063 -10.488189,9.850393 -0.566929,4.996063 2.267717,10.452756 8.645669,13.110236 0.141733,0.07087 0.283465,0.106299 0.389764,0.106299 l 46.311024,0 c 0.106299,0 0.177165,0 0.248031,-0.03543 C 86.527559,80.326767 90.248031,75.366137 90,70.299208 89.716535,65.409445 85.641732,60.767713 78.23622,59.031492 c -0.03543,-0.177165 -0.07087,-0.35433 -0.106299,-0.531496 1.665355,-0.81496 3.295276,-1.73622 4.96063,-2.763779 0.354331,-0.212598 0.531496,-0.708661 0.389764,-1.133858 -0.141732,-0.425197 -0.566929,-0.744095 -1.027559,-0.708661 -1.807087,0.177165 -3.614173,0.248031 -5.492126,0.212598 -2.409449,-6.059055 -7.015748,-10.240157 -13.145669,-10.133858 -2.728347,0.07087 -5.633859,1.062992 -8.468504,2.940945 -4.322835,-3.295275 -7.334646,-7.299212 -9.354331,-12.188976 1.38189,-1.594488 2.090551,-3.507873 1.984252,-5.456692 C 47.834646,26.7874 46.417323,24.448817 43.866142,22.74803 44.574803,14.952755 48.11811,6.9448815 51.80315,1.559055 52.086614,1.1692913 51.944882,0.60236217 51.625984,0.24803148 51.377953,-0.03543307 51.023622,0 50.704724,0.03543307 z M 48.57874,2.9763778 c -3.401575,6.2362201 -6.059055,12.6850382 -6.625984,18.7440932 -0.744095,-0.318897 -1.594488,-0.566929 -2.480315,-0.81496 -0.637795,-4.003937 -2.374016,-7.15748 -4.783465,-9 C 38.976378,7.9370074 43.972441,4.7125981 48.57874,2.9763778 z M 28.913386,11.940944 c 5.31496,0.248032 8.255905,6.448819 8.751968,9.850393 0.03543,0.425197 0.389764,0.779528 0.779528,0.885827 5.137795,1.027559 7.405512,3.933071 7.547244,6.69685 0.141732,2.763779 -1.771654,5.598425 -6.129921,6.590551 l -32.7401578,0 C 3.1889764,34.299211 1.7007874,31.145667 2.019685,28.311022 c 0.3188977,-2.834646 2.4094489,-5.31496 6.3425197,-5.633858 0.3543307,-0.03543 0.6732284,-0.248032 0.8149607,-0.566929 1.9842516,-4.003937 5.8110236,-5.952756 10.5236216,-5.279527 0.318898,0.03543 0.673229,-0.07087 0.885827,-0.318898 2.834646,-3.11811 5.775591,-4.5 8.326772,-4.570866 z M 44.433071,36.14173 c 2.090551,4.889764 5.173228,8.751968 9.248031,11.976377 -0.956693,0.779528 -1.913385,1.629921 -2.834645,2.586614 -4.996063,-0.566929 -9.496063,0.814961 -12.862205,3.791339 -5.137795,-4.96063 -7.795276,-9.744094 -9.46063,-16.51181 l 11.586614,0 c 1.559055,-0.03543 3.153544,-1.062992 4.322835,-1.84252 z m 19.417323,9.81496 c 7.688976,0.212599 11.799212,7.972441 12.543307,13.960629 0.07087,0.389764 0.389764,0.744095 0.81496,0.814961 7.228347,1.452756 10.559056,5.669291 10.771654,9.708661 0.212598,4.003936 -2.622047,8.078739 -8.822835,9.531495 l -45.779527,0 c -5.598425,-2.409449 -7.795276,-6.944881 -7.334646,-11.019684 0.46063,-4.074803 3.543307,-7.688976 9.177165,-8.185039 0.318898,-0.03543 0.637796,-0.248032 0.814961,-0.566929 2.834646,-5.669291 8.362205,-8.468504 15.059055,-7.511811 0.318898,0.03543 0.637795,-0.07087 0.850394,-0.318897 4.03937,-4.393701 8.220472,-6.307087 11.905512,-6.413386 z" style="" fill="#000000" fill-opacity="1" fill-rule="nonzero" stroke="none"/></g></g></svg>
