<svg xmlns:dc="http://purl.org/dc/elements/1.1/" xmlns:cc="http://creativecommons.org/ns#" xmlns:rdf="http://www.w3.org/1999/02/22-rdf-syntax-ns#" xmlns:svg="http://www.w3.org/2000/svg" xmlns="http://www.w3.org/2000/svg" xmlns:sodipodi="http://sodipodi.sourceforge.net/DTD/sodipodi-0.dtd" xmlns:inkscape="http://www.inkscape.org/namespaces/inkscape" version="1.1" x="0px" y="0px" viewBox="0 0 100 125"><g transform="translate(0,-952.36218)"><path style="color:#000000;enable-background:accumulate;" d="m 55.993948,962.36215 c -6.1339,1.7933 -11.98959,5.0109 -16.4375,9.5938 2.88638,1.8801 4.93144,5.2851 5.78125,9.5624 0.94524,0.2732 1.81721,0.6321 2.625,1.0313 0.62261,-6.9768 3.59796,-13.8224 8.03125,-20.1875 z m -22.0625,10 c -2.89561,0.064 -6.10913,1.5977 -9.09375,4.875 -5.0648,-0.7283 -9.3918,1.4427 -11.5625,5.8125 -8.6824995,0.7283 -10.1200995,11.671 -1.4375,15.31247 l 33.28125,0 c 9.4062,-2.18487 9.38445,-13.12767 -1.46875,-15.31247 -0.90444,-6.8277 -4.89273,-10.7942 -9.71875,-10.6875 z m 16.71875,25.4688 c -1.86021,1.34447 -3.20487,2.38215 -5.53125,2.53115 l -12.34375,0 c 1.46539,6.021 4.71861,11.4538 8.84375,15.5626 3.52375,-3.5388 8.46664,-5.3001 13.875,-4.8125 1.04857,-1.0704 2.12528,-2.0222 3.21875,-2.8439 -3.56427,-2.9598 -6.21603,-6.4952 -8.0625,-10.43735 z m 18.1875,8.53115 c -4.02867,0.089 -8.44123,2.2122 -12.59375,6.7501 -7.0467,-1.0085 -13.105,2.0121 -16.125,8.0625 -12.0801,1.0084 -14.0801,16.1455 -2,21.1875 l 46.3125,0 c 13.0868,-3.0252 13.06885,-18.1623 -2.03125,-21.1875 -1.25838,-9.4538 -6.84805,-14.9603 -13.5625,-14.8126 z m 18.71875,9.9376 c -1.38653,0.1253 -2.80934,0.2038 -4.25,0.2187 0.19136,0.6211 0.38182,1.2494 0.53125,1.9063 1.23981,-0.6579 2.47681,-1.3608 3.71875,-2.125 z" fill="#000000" stroke="none" marker="none" visibility="visible" display="inline" overflow="visible"/></g></svg>
